<svg width="475" height="687" viewBox="0 0 475 687" fill="none" xmlns="http://www.w3.org/2000/svg">
<path fill-rule="evenodd" clip-rule="evenodd" d="M170.353 2.47441C237.279 2.10247 308.699 -7.89497 365.463 27.5608C422.451 63.1563 469.438 125.326 474.324 192.339C479.028 256.863 406.882 300.298 389.898 362.724C376.041 413.659 417.529 475.654 385.774 517.821C354.229 559.709 285.112 539.388 238.61 563.62C175.284 596.618 135.586 702.985 66.7282 684.071C-1.57135 665.311 26.7248 549.216 -16.9215 493.432C-57.0046 442.203 -155.417 443.39 -170.999 380.237C-186.211 318.587 -110.476 272.684 -85.8284 214.164C-60.1121 153.106 -74.4402 71.9238 -23.3684 29.7218C27.9388 -12.6747 103.797 2.8443 170.353 2.47441Z" fill="#FF5714"/>
</svg>
