<svg width="69" height="69" viewBox="0 0 69 69" fill="none" xmlns="http://www.w3.org/2000/svg">
<rect width="69" height="69" rx="20" fill="#77CC6D"/>
<path d="M52.9286 29.8929H39.1071V16.0714C39.1071 14.3754 37.7317 13 36.0357 13H32.9643C31.2683 13 29.8929 14.3754 29.8929 16.0714V29.8929H16.0714C14.3754 29.8929 13 31.2683 13 32.9643V36.0357C13 37.7317 14.3754 39.1071 16.0714 39.1071H29.8929V52.9286C29.8929 54.6246 31.2683 56 32.9643 56H36.0357C37.7317 56 39.1071 54.6246 39.1071 52.9286V39.1071H52.9286C54.6246 39.1071 56 37.7317 56 36.0357V32.9643C56 31.2683 54.6246 29.8929 52.9286 29.8929Z" fill="white"/>
</svg>
