<svg width="131" height="66" viewBox="0 0 131 66" fill="none" xmlns="http://www.w3.org/2000/svg">
<path d="M26.918 41V23.9375H32.168C33.668 23.9375 35.0078 24.2773 36.1875 24.957C37.375 25.6289 38.3008 26.5898 38.9648 27.8398C39.6289 29.082 39.9609 30.4961 39.9609 32.082V32.8672C39.9609 34.4531 39.6328 35.8633 38.9766 37.0977C38.3281 38.332 37.4102 39.2891 36.2227 39.9688C35.0352 40.6484 33.6953 40.9922 32.2031 41H26.918ZM30.4336 26.7852V38.1758H32.1328C33.5078 38.1758 34.5586 37.7266 35.2852 36.8281C36.0117 35.9297 36.3828 34.6445 36.3984 32.9727V32.0703C36.3984 30.3359 36.0391 29.0234 35.3203 28.1328C34.6016 27.2344 33.5508 26.7852 32.168 26.7852H30.4336ZM52.793 33.6055H46.043V38.1758H53.9648V41H42.5273V23.9375H53.9414V26.7852H46.043V30.8516H52.793V33.6055ZM59.543 38.1758H67.0078V41H56.0273V23.9375H59.543V38.1758ZM79.3008 33.6055H72.5508V38.1758H80.4727V41H69.0352V23.9375H80.4492V26.7852H72.5508V30.8516H79.3008V33.6055ZM95.6133 26.7852H90.3867V41H86.8711V26.7852H81.7148V23.9375H95.6133V26.7852ZM107.895 33.6055H101.145V38.1758H109.066V41H97.6289V23.9375H109.043V26.7852H101.145V30.8516H107.895V33.6055Z" fill="#77CC6D"/>
<path d="M1.57143 41.9375C1.57143 42.4845 1.81977 43.0091 2.26182 43.3959C2.70387 43.7827 3.30342 44 3.92857 44H18.0714C18.6966 44 19.2961 43.7827 19.7382 43.3959C20.1802 43.0091 20.4286 42.4845 20.4286 41.9375V27.5H1.57143V41.9375ZM14.9286 30.9375C14.9286 30.7552 15.0114 30.5803 15.1587 30.4514C15.3061 30.3224 15.5059 30.25 15.7143 30.25C15.9227 30.25 16.1225 30.3224 16.2699 30.4514C16.4172 30.5803 16.5 30.7552 16.5 30.9375V40.5625C16.5 40.7448 16.4172 40.9197 16.2699 41.0486C16.1225 41.1776 15.9227 41.25 15.7143 41.25C15.5059 41.25 15.3061 41.1776 15.1587 41.0486C15.0114 40.9197 14.9286 40.7448 14.9286 40.5625V30.9375ZM10.2143 30.9375C10.2143 30.7552 10.2971 30.5803 10.4444 30.4514C10.5918 30.3224 10.7916 30.25 11 30.25C11.2084 30.25 11.4082 30.3224 11.5556 30.4514C11.7029 30.5803 11.7857 30.7552 11.7857 30.9375V40.5625C11.7857 40.7448 11.7029 40.9197 11.5556 41.0486C11.4082 41.1776 11.2084 41.25 11 41.25C10.7916 41.25 10.5918 41.1776 10.4444 41.0486C10.2971 40.9197 10.2143 40.7448 10.2143 40.5625V30.9375ZM5.5 30.9375C5.5 30.7552 5.58278 30.5803 5.73013 30.4514C5.87748 30.3224 6.07733 30.25 6.28571 30.25C6.4941 30.25 6.69395 30.3224 6.8413 30.4514C6.98865 30.5803 7.07143 30.7552 7.07143 30.9375V40.5625C7.07143 40.7448 6.98865 40.9197 6.8413 41.0486C6.69395 41.1776 6.4941 41.25 6.28571 41.25C6.07733 41.25 5.87748 41.1776 5.73013 41.0486C5.58278 40.9197 5.5 40.7448 5.5 40.5625V30.9375ZM21.2143 23.375H15.3214L14.8598 22.5715C14.762 22.3997 14.6114 22.2552 14.4249 22.1542C14.2384 22.0533 14.0233 21.9999 13.804 22H8.19107C7.97224 21.9993 7.7576 22.0525 7.57173 22.1536C7.38587 22.2546 7.23631 22.3995 7.14018 22.5715L6.67857 23.375H0.785714C0.57733 23.375 0.37748 23.4474 0.23013 23.5764C0.0827804 23.7053 0 23.8802 0 24.0625L0 25.4375C0 25.6198 0.0827804 25.7947 0.23013 25.9236C0.37748 26.0526 0.57733 26.125 0.785714 26.125H21.2143C21.4227 26.125 21.6225 26.0526 21.7699 25.9236C21.9172 25.7947 22 25.6198 22 25.4375V24.0625C22 23.8802 21.9172 23.7053 21.7699 23.5764C21.6225 23.4474 21.4227 23.375 21.2143 23.375Z" fill="#77CC6D"/>
</svg>
