<svg width="104" height="66" viewBox="0 0 104 66" fill="none" xmlns="http://www.w3.org/2000/svg">
<path d="M16.775 24.8961L20.5333 29.125C20.6917 29.3032 20.6917 29.5939 20.5333 29.772L11.4333 40.0115L7.56667 40.4944C7.05 40.5601 6.6125 40.0678 6.67083 39.4864L7.1 35.1356L16.2 24.8961C16.3583 24.7179 16.6167 24.7179 16.775 24.8961ZM23.525 23.8224L21.4917 21.5345C20.8583 20.8218 19.8292 20.8218 19.1917 21.5345L17.7167 23.1942C17.5583 23.3723 17.5583 23.663 17.7167 23.8412L21.475 28.0701C21.6333 28.2483 21.8917 28.2483 22.05 28.0701L23.525 26.4104C24.1583 25.6931 24.1583 24.5351 23.525 23.8224ZM16 37.2266V41.9994H2.66667V26.9965H12.2417C12.375 26.9965 12.5 26.9355 12.5958 26.8324L14.2625 24.957C14.5792 24.6007 14.3542 23.9959 13.9083 23.9959H2C0.895833 23.9959 0 25.0039 0 26.2463V42.7496C0 43.992 0.895833 45 2 45H16.6667C17.7708 45 18.6667 43.992 18.6667 42.7496V35.3512C18.6667 34.8496 18.1292 34.6011 17.8125 34.9527L16.1458 36.8281C16.0542 36.9359 16 37.0766 16 37.2266Z" fill="#77CC6D"/>
<path d="M38.4766 33.6055H31.7266V38.1758H39.6484V41H28.2109V23.9375H39.625V26.7852H31.7266V30.8516H38.4766V33.6055ZM41.7109 41V23.9375H46.9609C48.4609 23.9375 49.8008 24.2773 50.9805 24.957C52.168 25.6289 53.0938 26.5898 53.7578 27.8398C54.4219 29.082 54.7539 30.4961 54.7539 32.082V32.8672C54.7539 34.4531 54.4258 35.8633 53.7695 37.0977C53.1211 38.332 52.2031 39.2891 51.0156 39.9688C49.8281 40.6484 48.4883 40.9922 46.9961 41H41.7109ZM45.2266 26.7852V38.1758H46.9258C48.3008 38.1758 49.3516 37.7266 50.0781 36.8281C50.8047 35.9297 51.1758 34.6445 51.1914 32.9727V32.0703C51.1914 30.3359 50.832 29.0234 50.1133 28.1328C49.3945 27.2344 48.3438 26.7852 46.9609 26.7852H45.2266ZM61.0586 41H57.543V23.9375H61.0586V41ZM76.8203 26.7852H71.5938V41H68.0781V26.7852H62.9219V23.9375H76.8203V26.7852Z" fill="#77CC6D"/>
</svg>
